<svg width="39" height="38" viewBox="0 0 39 38" fill="none" xmlns="http://www.w3.org/2000/svg">
<g clip-path="url(#clip0_21_117)">
<path fill-rule="evenodd" clip-rule="evenodd" d="M13.9832 0.309128C10.1708 0.309128 7.10471 3.50767 7.10471 7.42599C7.10471 9.80815 8.23892 11.9239 9.98231 13.2155C9.08379 13.8886 8.35548 14.763 7.85576 15.7684C7.35604 16.7737 7.09882 17.8822 7.10471 19.0049C7.10471 21.3886 8.23892 23.5028 9.98231 24.7944C9.08379 25.4676 8.35548 26.3419 7.85576 27.3473C7.35604 28.3527 7.09882 29.4611 7.10471 30.5838C7.10471 34.5022 10.1708 37.7007 13.9832 37.7007C17.794 37.7007 20.8617 34.5022 20.8617 30.5838V24.5669C22.0665 25.5715 23.5853 26.1222 25.1539 26.1233C28.9663 26.1218 32.0324 22.9232 32.0324 19.0049C32.0387 17.8821 31.7816 16.7735 31.2819 15.7681C30.7821 14.7627 30.0536 13.8884 29.1548 13.2155C30.0534 12.5423 30.7817 11.6679 31.2814 10.6626C31.7811 9.65718 32.0383 8.5487 32.0324 7.42599C32.0324 3.50767 28.9663 0.309128 25.1539 0.309128H13.9832ZM9.68941 7.42599C9.68941 4.94724 11.6244 2.96237 13.9832 2.96237H18.2754V11.8896H13.9832C11.6244 11.8896 9.68941 9.90319 9.68941 7.42599ZM25.1539 11.8881H20.8617V2.96081H25.1539C27.5143 2.96081 29.4477 4.94724 29.4477 7.42599C29.4477 9.90319 27.5143 11.8881 25.1539 11.8881ZM9.69096 19.0049C9.69096 16.5277 11.626 14.5413 13.9848 14.5413H18.277V23.4685H13.9832C11.6229 23.4685 9.68941 21.4821 9.68941 19.0049H9.69096ZM20.8617 19.0049C20.8617 16.5277 22.7967 14.5413 25.1555 14.5413C27.5158 14.5413 29.4493 16.5262 29.4493 19.0049C29.4493 21.4821 27.5158 23.4685 25.1555 23.4685C22.7967 23.4685 20.8633 21.4837 20.8633 19.0049H20.8617ZM9.69096 30.5838C9.69096 28.1067 11.626 26.1218 13.9848 26.1218H18.277V30.5838C18.277 33.0626 16.3451 35.0475 13.9848 35.0475C11.626 35.0475 9.69096 33.0626 9.69096 30.5838Z" fill="white"/>
</g>
<defs>
<clipPath id="clip0_21_117">
<rect width="37.3916" height="37.3916" fill="white" transform="translate(0.872803 0.309128)"/>
</clipPath>
</defs>
</svg>
