<svg width="61" height="61" viewBox="0 0 61 61" fill="none" xmlns="http://www.w3.org/2000/svg">
<path d="M59.5227 20.3707L31.882 5.12066C31.4589 4.88703 30.9834 4.76449 30.5 4.76449C30.0166 4.76449 29.5411 4.88703 29.118 5.12066L1.47734 20.3707C1.03042 20.6179 0.65789 20.9804 0.398482 21.4204C0.139074 21.8604 0.0022583 22.3618 0.0022583 22.8726C0.0022583 23.3834 0.139074 23.8848 0.398482 24.3248C0.65789 24.7648 1.03042 25.1273 1.47734 25.3746L6.67188 28.2339V39.6143C6.67022 40.7857 7.10226 41.9163 7.88473 42.7882C11.1111 46.3934 18.3477 52.4219 30.5 52.4219C33.7274 52.4392 36.9394 51.9775 40.0313 51.0518V57.1875C40.0313 57.9459 40.3325 58.6731 40.8687 59.2094C41.405 59.7456 42.1323 60.0469 42.8906 60.0469C43.649 60.0469 44.3763 59.7456 44.9125 59.2094C45.4487 58.6731 45.75 57.9459 45.75 57.1875V48.638C48.5117 47.1127 51.0007 45.139 53.1153 42.7977C53.8977 41.9259 54.3298 40.7953 54.3281 39.6238V28.2435L59.5227 25.3841C59.9696 25.1368 60.3421 24.7744 60.6015 24.3344C60.8609 23.8944 60.9977 23.3929 60.9977 22.8821C60.9977 22.3714 60.8609 21.8699 60.6015 21.4299C60.3421 20.9899 59.9696 20.6275 59.5227 20.3802V20.3707ZM30.5 10.8918L52.2217 22.875L44.3203 27.2355C44.3055 27.2268 44.2912 27.2173 44.2774 27.207L31.8868 20.3707C31.2253 20.0288 30.4564 19.9584 29.7438 20.1746C29.0312 20.3908 28.4311 20.8764 28.071 21.5283C27.711 22.1801 27.6194 22.9467 27.8158 23.665C28.0122 24.3833 28.4811 24.9966 29.1227 25.3746L38.4157 30.4952L30.5 34.8605L8.77828 22.875L30.5 10.8918ZM30.5 46.7031C20.8687 46.7031 15.0951 42.1591 12.3906 39.2521V31.3888L29.118 40.6198C29.5411 40.8534 30.0166 40.976 30.5 40.976C30.9834 40.976 31.4589 40.8534 31.882 40.6198L40.0313 36.133V45.0042C36.9865 46.1548 33.7548 46.7308 30.5 46.7031ZM48.6094 39.2521C47.7328 40.192 46.776 41.0538 45.75 41.8279V32.9757L48.6094 31.3983V39.2521Z" fill="#CEDC00"/>
</svg>
