<svg width="100" height="100" viewBox="0 0 100 100" fill="none" xmlns="http://www.w3.org/2000/svg">
<path d="M84.375 37.5C84.3785 31.707 82.9178 26.0072 80.1288 20.9298C77.3398 15.8524 73.3129 11.5622 68.422 8.45769C63.5312 5.35317 57.9351 3.53502 52.1535 3.17211C46.3719 2.80921 40.5924 3.91332 35.3517 6.38189C30.111 8.85046 25.5792 12.6034 22.1772 17.2922C18.7752 21.981 16.6133 27.4535 15.8923 33.2014C15.1713 38.9493 15.9146 44.7862 18.0533 50.17C20.1919 55.5537 23.6564 60.3097 28.125 63.9961V93.75C28.1246 94.283 28.2605 94.8071 28.5199 95.2728C28.7792 95.7384 29.1533 96.1299 29.6066 96.4102C30.0599 96.6905 30.5773 96.8502 31.1097 96.8741C31.6421 96.898 32.1718 96.7854 32.6484 96.5469L50 87.8906L67.3555 96.5664C67.7907 96.7742 68.2677 96.8798 68.75 96.875C69.5788 96.875 70.3737 96.5458 70.9597 95.9597C71.5458 95.3737 71.875 94.5788 71.875 93.75V63.9961C75.7849 60.7759 78.9334 56.7301 81.0946 52.149C83.2558 47.5679 84.3761 42.5653 84.375 37.5ZM21.875 37.5C21.875 31.9374 23.5245 26.4997 26.6149 21.8746C29.7053 17.2495 34.0979 13.6446 39.237 11.5159C44.3762 9.38717 50.0312 8.83021 55.4869 9.91541C60.9426 11.0006 65.954 13.6793 69.8874 17.6126C73.8207 21.546 76.4994 26.5574 77.5846 32.0131C78.6698 37.4688 78.1128 43.1238 75.9841 48.263C73.8554 53.4021 70.2506 57.7947 65.6254 60.8851C61.0003 63.9755 55.5626 65.625 50 65.625C42.5433 65.6167 35.3944 62.6509 30.1218 57.3782C24.8491 52.1056 21.8833 44.9567 21.875 37.5ZM65.625 88.6953L51.3945 81.582C50.9604 81.3648 50.4816 81.2517 49.9961 81.2517C49.5106 81.2517 49.0318 81.3648 48.5977 81.582L34.375 88.6953V68.1133C39.2124 70.5857 44.5674 71.8749 50 71.8749C55.4326 71.8749 60.7876 70.5857 65.625 68.1133V88.6953ZM50 59.375C54.3265 59.375 58.5558 58.0921 62.1531 55.6884C65.7504 53.2847 68.5542 49.8683 70.2099 45.8712C71.8655 41.8741 72.2987 37.4757 71.4547 33.2324C70.6106 28.9891 68.5272 25.0913 65.468 22.032C62.4087 18.9728 58.5109 16.8894 54.2676 16.0453C50.0243 15.2013 45.6259 15.6345 41.6288 17.2901C37.6317 18.9458 34.2153 21.7496 31.8116 25.3469C29.408 28.9442 28.125 33.1735 28.125 37.5C28.1312 43.2997 30.4379 48.8601 34.5389 52.9611C38.6399 57.0621 44.2003 59.3688 50 59.375ZM50 21.875C53.0903 21.875 56.1113 22.7914 58.6808 24.5083C61.2503 26.2252 63.253 28.6655 64.4356 31.5206C65.6182 34.3757 65.9277 37.5173 65.3248 40.5483C64.7219 43.5792 63.2337 46.3633 61.0485 48.5485C58.8634 50.7337 56.0792 52.2219 53.0483 52.8248C50.0173 53.4277 46.8757 53.1182 44.0206 51.9356C41.1655 50.753 38.7252 48.7503 37.0083 46.1808C35.2914 43.6113 34.375 40.5903 34.375 37.5C34.375 33.356 36.0212 29.3817 38.9515 26.4515C41.8817 23.5212 45.856 21.875 50 21.875Z" fill="#CEDC00"/>
</svg>
